<svg width="46" height="45" viewBox="0 0 46 45" fill="none" xmlns="http://www.w3.org/2000/svg">
<rect x="2.03334" width="43.9666" height="43.9666" rx="3.784" fill="white"/>
<rect x="10.2771" y="8.24376" width="27.4792" height="27.4792" fill="black"/>
<rect x="23.7526" y="2.52806" width="27.4792" height="27.4792" transform="rotate(44.2983 23.7526 2.52806)" fill="#FD883D"/>
<path d="M28.0716 22.1426L30.9844 30.139L23.9497 26.2644L16.0632 29.0398L19.8553 22.3899L17.0524 14.2011L23.9497 18.0757L31.2591 15.3827L28.0716 22.1426Z" fill="white"/>
<path d="M26.9251 24.7449L23.3947 32.4885L21.0961 24.7933L13.5272 21.242L20.8938 19.1599L24.6375 11.3563L26.8381 18.955L33.9378 22.1605L26.9251 24.7449Z" fill="white"/>
<path d="M26.1961 21.9559C26.1961 23.0334 25.2653 23.9069 24.1171 23.9069C22.969 23.9069 22.0382 23.0334 22.0382 21.9559C22.0382 20.8783 22.969 20.0048 24.1171 20.0048C25.2653 20.0048 26.1961 20.8783 26.1961 21.9559Z" fill="#FD883D"/>
</svg>
